<mxfile host="app.diagrams.net" modified="2023-09-27T12:44:41.600Z" agent="Mozilla/5.0 (Windows NT 10.0; Win64; x64) AppleWebKit/537.36 (KHTML, like Gecko) Chrome/117.0.0.0 Safari/537.36 Edg/117.0.2045.43" version="21.8.2" etag="Y1CnfDFA9t9dL9OPBUL_" type="github">
  <diagram name="Page-1" id="umKMch4RFfmV1g6AQ0ZE">
    <mxGraphModel>
      <root>
        <mxCell id="0" />
        <mxCell id="1" parent="0" />
      </root>
    </mxGraphModel>
  </diagram>
</mxfile>
